{
    "asset" : {
        "generator" : "Khronos glTF Blender I/O v1.3.48",
        "version" : "2.0"
    },
    "scene" : 0,
    "scenes" : [
        {
            "name" : "Scene",
            "nodes" : [
                1,
                2,
                3,
                4,
                5,
                6
            ]
        }
    ],
    "nodes" : [
        {
            "name" : "Camera.001",
            "rotation" : [
                0.1602192223072052,
                0.837095320224762,
                -0.4046676754951477,
                0.3314293920993805
            ],
            "translation" : [
                400.1130065917969,
                463.2640075683594,
                -431.0780334472656
            ]
        },
        {
            "children" : [
                0
            ],
            "name" : "Node_0",
            "scale" : [
                0.009999999776482582,
                0.009999999776482582,
                0.009999999776482582
            ]
        },
        {
            "name" : "Light",
            "rotation" : [
                0.16907575726509094,
                0.7558803558349609,
                -0.27217137813568115,
                0.570947527885437
            ],
            "translation" : [
                4.076245307922363,
                5.903861999511719,
                -1.0054539442062378
            ]
        },
        {
            "name" : "Camera",
            "rotation" : [
                0.483536034822464,
                0.33687159419059753,
                -0.20870360732078552,
                0.7804827094078064
            ],
            "translation" : [
                7.358891487121582,
                4.958309173583984,
                6.925790786743164
            ]
        },
        {
            "name" : "Camera.002",
            "rotation" : [
                -0.4853562116622925,
                0.15733276307582855,
                -0.574608564376831,
                -0.6399226188659668
            ]
        },
        {
            "mesh" : 0,
            "name" : "Cylinder.001",
            "rotation" : [
                0.7071068286895752,
                0,
                0,
                0.7071067094802856
            ]
        },
        {
            "mesh" : 1,
            "name" : "Cylinder",
            "rotation" : [
                0.7071068286895752,
                0,
                0,
                0.7071067094802856
            ]
        }
    ],
    "materials" : [
        {
            "doubleSided" : true,
            "emissiveFactor" : [
                0,
                0,
                0
            ],
            "name" : "cup",
            "pbrMetallicRoughness" : {
                "baseColorFactor" : [
                    0.800000011920929,
                    0.800000011920929,
                    0.800000011920929,
                    1
                ],
                "metallicFactor" : 0,
                "roughnessFactor" : 0.5
            }
        },
        {
            "doubleSided" : true,
            "emissiveFactor" : [
                0,
                0,
                0
            ],
            "name" : "coffee",
            "pbrMetallicRoughness" : {
                "baseColorFactor" : [
                    0.800000011920929,
                    0.800000011920929,
                    0.800000011920929,
                    1
                ],
                "metallicFactor" : 0,
                "roughnessFactor" : 0.5
            }
        }
    ],
    "meshes" : [
        {
            "name" : "Cylinder.001",
            "primitives" : [
                {
                    "attributes" : {
                        "POSITION" : 0,
                        "NORMAL" : 1
                    },
                    "indices" : 2,
                    "material" : 0
                }
            ]
        },
        {
            "name" : "Cylinder",
            "primitives" : [
                {
                    "attributes" : {
                        "POSITION" : 3,
                        "NORMAL" : 4
                    },
                    "indices" : 5,
                    "material" : 0
                },
                {
                    "attributes" : {
                        "POSITION" : 6,
                        "NORMAL" : 7
                    },
                    "indices" : 8,
                    "material" : 1
                }
            ]
        }
    ],
    "accessors" : [
        {
            "bufferView" : 0,
            "componentType" : 5126,
            "count" : 56322,
            "max" : [
                3.619174003601074,
                -1.667734980583191,
                -1.2737480401992798
            ],
            "min" : [
                1.8168599605560303,
                -2.525357961654663,
                -3.454209089279175
            ],
            "type" : "VEC3"
        },
        {
            "bufferView" : 1,
            "componentType" : 5126,
            "count" : 56322,
            "type" : "VEC3"
        },
        {
            "bufferView" : 2,
            "componentType" : 5123,
            "count" : 337920,
            "type" : "SCALAR"
        },
        {
            "bufferView" : 3,
            "componentType" : 5126,
            "count" : 39168,
            "max" : [
                2.4348320960998535,
                0.4984950125217438,
                -0.4361099898815155
            ],
            "min" : [
                -2.5180530548095703,
                -4.633324146270752,
                -3.71684193611145
            ],
            "type" : "VEC3"
        },
        {
            "bufferView" : 4,
            "componentType" : 5126,
            "count" : 39168,
            "type" : "VEC3"
        },
        {
            "bufferView" : 5,
            "componentType" : 5123,
            "count" : 233472,
            "type" : "SCALAR"
        },
        {
            "bufferView" : 6,
            "componentType" : 5126,
            "count" : 34050,
            "max" : [
                2.2720189094543457,
                0.329800009727478,
                -0.6986079812049866
            ],
            "min" : [
                -2.3552401065826416,
                -4.464628219604492,
                -3.121026039123535
            ],
            "type" : "VEC3"
        },
        {
            "bufferView" : 7,
            "componentType" : 5126,
            "count" : 34050,
            "type" : "VEC3"
        },
        {
            "bufferView" : 8,
            "componentType" : 5123,
            "count" : 202752,
            "type" : "SCALAR"
        }
    ],
    "bufferViews" : [
        {
            "buffer" : 0,
            "byteLength" : 675864,
            "byteOffset" : 0
        },
        {
            "buffer" : 0,
            "byteLength" : 675864,
            "byteOffset" : 675864
        },
        {
            "buffer" : 0,
            "byteLength" : 675840,
            "byteOffset" : 1351728
        },
        {
            "buffer" : 0,
            "byteLength" : 470016,
            "byteOffset" : 2027568
        },
        {
            "buffer" : 0,
            "byteLength" : 470016,
            "byteOffset" : 2497584
        },
        {
            "buffer" : 0,
            "byteLength" : 466944,
            "byteOffset" : 2967600
        },
        {
            "buffer" : 0,
            "byteLength" : 408600,
            "byteOffset" : 3434544
        },
        {
            "buffer" : 0,
            "byteLength" : 408600,
            "byteOffset" : 3843144
        },
        {
            "buffer" : 0,
            "byteLength" : 405504,
            "byteOffset" : 4251744
        }
    ],
    "buffers" : [
        {
            "byteLength" : 4657248,
            "uri" : "demo_tee.bin"
        }
    ]
}
