{"accessors" : [{"bufferView" : 0, "byteOffset" : 0, "componentType" : 5123, "count" : 16830, "type" : "SCALAR", "max" : [16829], "min" : [0]}, {"bufferView" : 1, "byteOffset" : 0, "componentType" : 5126, "count" : 16830, "type" : "VEC3", "max" : [403896.0625, 403900.0625, 403904.0625], "min" : [0.0779666006565094, 4.077966690063477, 8.077966690063477]}, {"bufferView" : 1, "byteOffset" : 12, "componentType" : 5126, "count" : 16830, "type" : "VEC3", "max" : [403908.0625, 403912.0625, 403916.0625], "min" : [12.077966690063477, 16.077966690063477, 20.077966690063477]}], "asset" : {"generator" : "Aspose.3D 20.8", "version" : "2.0"}, "buffers" : [{"uri" : "buffer.bin", "byteLength" : 437588}], "bufferViews" : [{"buffer" : 0, "byteOffset" : 0, "byteLength" : 33660, "target" : 34963}, {"buffer" : 0, "byteOffset" : 33664, "byteLength" : 403920, "byteStride" : 24, "target" : 34962}], "materials" : [{"pbrMetallicRoughness" : {"baseColorFactor" : [0.3317391276359558, 0.34086957573890686, 0.3499999940395355, 1], "metallicFactor" : 0, "roughnessFactor" : 0}, "emissiveFactor" : [0, 0, 0], "alphaMode" : "OPAQUE", "doubleSided" : false}], "meshes" : [{"primitives" : [{"attributes" : {"POSITION" : 1, "NORMAL" : 2}, "indices" : 0, "material" : 0, "mode" : 4}]}], "nodes" : [{"mesh" : 0, "name" : ""}, {"children" : [0], "name" : "Ø32 X 1"}], "scene" : 0, "scenes" : [{"nodes" : [1]}]}